<svg width="50" height="49" viewBox="0 0 50 49" fill="none" xmlns="http://www.w3.org/2000/svg">
<path d="M20.5232 31.5606L21.5552 32.6756C23.0035 32.1916 27.1987 31.1262 32.3934 30.7366C38.8867 30.2496 42.8723 23.7954 43.3164 21.4748C43.7604 19.1543 44.2491 14.307 40.3608 10.0173C38.1185 7.54362 35.8128 6.60626 33.829 6.32682C33.3362 8.33162 31.981 9.91752 29.0241 11.3959C26.263 12.7765 22.8145 12.4502 21.7425 11.3959C20.6187 12.7555 19.7495 14.4203 19.4206 16.4249C18.5441 21.7657 17.1557 25.8184 16.5711 27.1771L17.1968 27.8646M20.5232 31.5606C18.7927 32.7741 15.2099 35.3869 15.1201 36.6617C15.0078 38.2553 15.2669 40.6489 12.9707 41.2384C10.6746 41.828 10.3188 39.558 9.43514 38.5831C8.55143 37.6082 5.83924 37.1181 6.89081 34.531C7.94239 31.944 10.1091 34.1001 11.7267 32.9181C13.3442 31.736 15.9681 29.4756 17.1968 27.8646M20.5232 31.5606L17.1968 27.8646" stroke="white" stroke-linejoin="round"/>
</svg>
