<svg width="42" height="49" viewBox="0 0 42 49" fill="none" xmlns="http://www.w3.org/2000/svg">
<g filter="url(#filter0_d)">
<path d="M16.2418 5.02393C16.812 5.37327 17.9525 6.46123 17.9525 8.01831C17.9525 9.96466 15.6667 10.5885 15.6667 12.9091C15.6667 14.7657 16.6155 16.0449 17.0899 16.4525" stroke="white"/>
<path d="M21.9488 1.21436C21.3786 1.58699 20.2381 2.74748 20.2381 4.40837C20.2381 6.48447 22.5238 7.14989 22.5238 9.62525C22.5238 11.6055 21.575 12.9701 21.1006 13.4048" stroke="white"/>
<path d="M31.6667 22.6791C33.5715 21.1155 37 21.5063 37 24.6338C37 30.8887 31.6667 31.6805 29.381 32.0715" stroke="white"/>
<path d="M12.619 40.0715H24.0476" stroke="white"/>
<path d="M31.6667 19.114H5V24.9423C5 29.7858 8.04762 34.7382 13 37.0239H23.2857C29.381 34.7382 31.5872 28.2511 31.6667 24.9423V19.114Z" stroke="white"/>
</g>
<defs>
<filter id="filter0_d" x="0.5" y="0.795776" width="41" height="47.7758" filterUnits="userSpaceOnUse" color-interpolation-filters="sRGB">
<feFlood flood-opacity="0" result="BackgroundImageFix"/>
<feColorMatrix in="SourceAlpha" type="matrix" values="0 0 0 0 0 0 0 0 0 0 0 0 0 0 0 0 0 0 127 0"/>
<feOffset dy="4"/>
<feGaussianBlur stdDeviation="2"/>
<feColorMatrix type="matrix" values="0 0 0 0 0 0 0 0 0 0 0 0 0 0 0 0 0 0 0.25 0"/>
<feBlend mode="normal" in2="BackgroundImageFix" result="effect1_dropShadow"/>
<feBlend mode="normal" in="SourceGraphic" in2="effect1_dropShadow" result="shape"/>
</filter>
</defs>
</svg>
