<svg width="48" height="44" viewBox="0 0 48 44" fill="none" xmlns="http://www.w3.org/2000/svg">
<circle cx="20.7519" cy="22.7938" r="12.9442" stroke="white"/>
<path d="M20.6841 38.9368V43.3771" stroke="white"/>
<path d="M4.63062 22.8833L0.190283 22.8833" stroke="white"/>
<path d="M9.33264 34.235L6.19285 37.3748" stroke="white"/>
<path d="M35.1754 37.3746L32.0356 34.2348" stroke="white"/>
<path d="M10.8722 13.5407C13.5462 11.0201 20.2264 6.42958 25.1301 4.26872C31.2597 1.56764 33.6436 2.89313 34.8169 3.39765C35.9902 3.90218 38.5764 8.00016 39.6952 8.28537C42.7844 9.07286 45.2505 11.3149 45.086 12.9495C44.9216 14.5841 45.2444 14.7108 44.443 15.6706C43.404 13.9885 42.4983 11.9576 41.0371 11.3606C39.5758 10.7636 38.1063 12.3344 35.1616 11.1788C33.2848 15.277 34.1169 19.3022 34.2062 22.2728C34.9481 22.3613 35.8203 22.0565 36.7037 22.4032C37.808 22.8365 37.1649 25.5576 36.5079 26.1493C35.5788 26.9862 30.488 26.3356 26.2946 25.1148C22.1012 23.8939 20.4478 21.6125 18.0156 20.2333C15.5834 18.8541 11.3473 18.8245 9.36245 18.4703C7.37756 18.1162 7.44282 16.8675 7.13995 15.4743C6.89765 14.3598 7.5205 13.7829 7.86221 13.6338L10.8722 13.5407Z" fill="#34373B"/>
<path d="M10.8722 13.5407C13.5462 11.0201 20.2264 6.42958 25.1301 4.26872C31.2597 1.56764 33.6436 2.89313 34.8169 3.39765C35.9902 3.90218 38.5764 8.00016 39.6952 8.28537C42.7844 9.07286 45.2505 11.3149 45.086 12.9495C44.9216 14.5841 45.2444 14.7108 44.443 15.6706C43.404 13.9885 42.4983 11.9576 41.0371 11.3606C39.5758 10.7636 38.1063 12.3344 35.1616 11.1788C33.2848 15.277 34.1169 19.3022 34.2062 22.2728M10.8722 13.5407C21.1508 13.3265 24.8735 21.159 34.2062 22.2728M10.8722 13.5407L7.86221 13.6338C7.5205 13.7829 6.89765 14.3598 7.13995 15.4743C7.44282 16.8675 7.37756 18.1162 9.36245 18.4703C11.3473 18.8245 15.5834 18.8541 18.0156 20.2333C20.4478 21.6125 22.1012 23.8939 26.2946 25.1148C30.488 26.3356 35.5788 26.9862 36.5079 26.1493C37.1649 25.5576 37.808 22.8365 36.7037 22.4032C35.8203 22.0565 34.9481 22.3613 34.2062 22.2728" stroke="white" stroke-linejoin="round"/>
</svg>
