<svg width="21" height="42" viewBox="0 0 21 42" fill="none" xmlns="http://www.w3.org/2000/svg">
<path d="M16.0429 1H4.59253C3.53333 3.62626 1 10.6296 1 16.2661C1 21.9025 9.30739 24.6364 9.30739 27.7156V36.5556C9.30739 37.4816 8.84 38.4195 7.33333 38.4195H4.8C2.97929 38.4195 1.84444 40.1246 1.84444 41L18.5687 41C18.5687 40.1246 17.4667 38.4195 15.8745 38.4195H13.2645C11.5555 38.4195 11.0755 37.4816 11.0755 36.5556V27.7156C11.0755 24.6797 20 22.3378 20 16.2661C20 11.4087 17.3619 4.06478 16.0429 1Z" stroke="white" stroke-linejoin="round"/>
<path d="M1 16.5H19.5" stroke="white"/>
</svg>
