<svg width="47" height="24" viewBox="0 0 47 24" fill="none" xmlns="http://www.w3.org/2000/svg">
<rect x="1.05884" y="4.73523" width="2.52941" height="14.5294" rx="0.5" stroke="white"/>
<rect x="43.4117" y="4.73523" width="2.52941" height="14.5294" rx="0.5" stroke="white"/>
<path fill-rule="evenodd" clip-rule="evenodd" d="M8.44118 1H7.5C6.94771 1 6.5 1.44772 6.5 2V22C6.5 22.5523 6.94772 23 7.5 23H8.44118C8.99346 23 9.44118 22.5523 9.44118 22V2C9.44118 1.44772 8.99346 1 8.44118 1ZM7.5 0C6.39543 0 5.5 0.89543 5.5 2V22C5.5 23.1046 6.39543 24 7.5 24H8.44118C9.54575 24 10.4412 23.1046 10.4412 22V13.4117H10.7352L36.2647 13.4117H36.5588V22C36.5588 23.1046 37.4542 24 38.5588 24H39.5C40.6045 24 41.5 23.1046 41.5 22V2C41.5 0.895431 40.6045 0 39.5 0H38.5588C37.4542 0 36.5588 0.89543 36.5588 2V9.88231H36.2647L10.7352 9.88231H10.4412V2C10.4412 0.895431 9.54575 0 8.44118 0H7.5ZM39.5 1H38.5588C38.0065 1 37.5588 1.44772 37.5588 2V22C37.5588 22.5523 38.0065 23 38.5588 23H39.5C40.0522 23 40.5 22.5523 40.5 22V2C40.5 1.44772 40.0522 1 39.5 1ZM10.7352 12.4117V10.8823L36.2647 10.8823V12.4117L10.7352 12.4117Z" fill="white"/>
<rect x="9.02942" y="10.5883" width="29.6471" height="2.11765" fill="#34373B"/>
</svg>
